HIERARCHY
ROOT Hips
{
  OFFSET -31.5692 30.0904 122.763
  CHANNELS 6 Xposition Yposition Zposition Zrotation Xrotation Yrotation
  JOINT LeftUpLeg
  {
    OFFSET 8.64259 1.95398 -2.38835
    CHANNELS 3 Zrotation Xrotation Yrotation
    JOINT LeftLeg
    {
      OFFSET 43.7702 0 0
      CHANNELS 3 Zrotation Xrotation Yrotation
      JOINT LeftFoot
      {
        OFFSET 40.6238 0 0
        CHANNELS 3 Zrotation Xrotation Yrotation
        JOINT LeftToeBase
        {
          OFFSET 12.7242 0 0
          CHANNELS 3 Zrotation Xrotation Yrotation
          End Site
          {
            OFFSET 0 0 0
          }
        }
      }
    }
  }
  JOINT RightUpLeg
  {
    OFFSET -8.2249 1.95398 -2.59336
    CHANNELS 3 Zrotation Xrotation Yrotation
    JOINT RightLeg
    {
      OFFSET 43.5653 0 0
      CHANNELS 3 Zrotation Xrotation Yrotation
      JOINT RightFoot
      {
        OFFSET 40.6238 0 0
        CHANNELS 3 Zrotation Xrotation Yrotation
        JOINT RightToeBase
        {
          OFFSET 12.7242 0 0
          CHANNELS 3 Zrotation Xrotation Yrotation
          End Site
          {
            OFFSET 0 0 0
          }
        }
      }
    }
  }
  JOINT Spine
  {
    OFFSET 0.165834 0.87714 6.61349
    CHANNELS 3 Zrotation Xrotation Yrotation
    JOINT Spine1
    {
      OFFSET 7.38963 1.71661e-005 0
      CHANNELS 3 Zrotation Xrotation Yrotation
      JOINT Spine2
      {
        OFFSET 11.9445 1.14441e-005 0
        CHANNELS 3 Zrotation Xrotation Yrotation
        JOINT Spine3
        {
          OFFSET 14.7254 4.19617e-005 0
          CHANNELS 3 Zrotation Xrotation Yrotation
          JOINT Spine4
          {
            OFFSET 10.9679 0 0
            CHANNELS 3 Zrotation Xrotation Yrotation
            JOINT RightShoulder
            {
              OFFSET 2.46616 -1.6653 3.69651
              CHANNELS 3 Zrotation Xrotation Yrotation
              JOINT RightArm
              {
                OFFSET 13.0012 0 0
                CHANNELS 3 Zrotation Xrotation Yrotation
                JOINT RightForeArm
                {
                  OFFSET 28.7848 1.62311e-005 0
                  CHANNELS 3 Zrotation Xrotation Yrotation
                  JOINT RightHand
                  {
                    OFFSET 26.5688 1.62095e-005 0
                    CHANNELS 3 Zrotation Xrotation Yrotation
                    End Site
                    {
                      OFFSET 0 0 0
                    }
                  }
                }
              }
            }
            JOINT LeftShoulder
            {
              OFFSET 2.38034 -1.29275 -3.7523
              CHANNELS 3 Zrotation Xrotation Yrotation
              JOINT LeftArm
              {
                OFFSET 16.3182 6.07031e-005 0
                CHANNELS 3 Zrotation Xrotation Yrotation
                JOINT LeftForeArm
                {
                  OFFSET 27.0901 0 0
                  CHANNELS 3 Zrotation Xrotation Yrotation
                  JOINT LeftHand
                  {
                    OFFSET 24.5451 1.51738e-005 0
                    CHANNELS 3 Zrotation Xrotation Yrotation
                    End Site
                    {
                      OFFSET 0 0 0
                    }
                  }
                }
              }
            }
            JOINT Neck
            {
              OFFSET 5.0226 -0.0266342 0
              CHANNELS 3 Zrotation Xrotation Yrotation
              JOINT Head
              {
                OFFSET 6.69364 2.86102e-005 0
                CHANNELS 3 Zrotation Xrotation Yrotation
                End Site
                {
                  OFFSET 0 0 0
                }
              }
            }
          }
        }
      }
    }
  }
}
MOTION
Frames:	9
Frame Time:	0.0416667
-155.34 100.593 -148.752 -97.9071 40.0457 -83.9316 -169.805 1.42014 97.594 -16.4695 19.0631 0.470476 65.9815 5.10893 -0.204811 28.5242 -0.941656 2.44101 172.235 0.0614295 88.3084 -19.7722 -11.5178 -1.23408 68.5085 -4.39152 -1.21973 24.3751 0.420938 6.73696 0.326625 7.9327 -90.3505 11.0096 0.487869 -0.744061 -0.661477 0.454643 -0.764812 -23.1963 0.688933 -0.563036 -3.18364 0.688943 -0.56304 90.9791 -30.3678 -104.684 34.0463 -3.45333 -6.17102 -2.90287 -28.878 -24.9307 -29.7886 0.433579 -11.5849 -88.7058 -53.2836 81.2794 -27.2772 7.30233 3.23501 -2.84967 8.23811 -0.00360302 2.98121 -0.33962 -16.5729 11.1801 -1.16357 0.0475454 -2.84488 -1.13486 1.80038 
-156.633 100.681 -148.236 -98.4882 40.3183 -83.837 -169.926 -0.0573045 96.7046 -15.7946 18.2467 0.343639 66.5465 5.43574 -0.325416 28.5186 -1.01672 2.65786 171.393 -1.02322 86.9901 -18.8828 -12.7766 -1.3643 68.0904 -4.35892 -1.21369 25.1652 0.130439 6.62499 0.32158 7.95782 -90.2768 10.9593 0.512154 -0.599254 -0.71169 0.485273 -0.621223 -23.247 0.668552 -0.417634 -3.23439 0.668556 -0.417636 90.4311 -30.5836 -105.689 34.769 -3.95232 -5.37562 1.01117 -25.5401 -19.687 -24.7494 0.385482 -11.7384 -88.5876 -53.0289 81.4046 -25.179 8.23325 -1.16276 -3.1893 10.3294 -0.211461 8.78985 -1.22949 -18.4084 10.5632 -1.30501 0.149454 -3.12548 -1.30301 1.41338 
-157.546 100.694 -147.882 -98.7634 40.5989 -83.6969 -169.974 -0.643063 96.2387 -15.9546 17.6811 0.24165 67.1154 5.70222 -0.361179 27.4404 -1.20664 1.64367 171.12 -1.73238 86.379 -18.1463 -13.2477 -1.63711 67.8106 -4.34963 -1.1174 25.3898 0.0591518 6.54275 0.310514 7.98547 -90.2541 10.9039 0.500631 -0.552639 -0.767064 0.475825 -0.574144 -23.3025 0.643584 -0.376627 -3.28984 0.643564 -0.376631 89.8504 -31.058 -106.652 35.319 -3.83807 -4.54427 3.07661 -32.0109 -14.9955 -21.3113 0.0074424 -12.021 -88.5016 -53.2615 81.5707 -22.583 9.25648 -5.77677 -3.82256 10.6541 -1.94509 10.6311 -1.85429 -21.0938 10.6494 -1.16567 0.745808 -3.57461 -1.31108 1.00211 
-158.224 100.695 -147.604 -98.8561 40.7751 -83.6654 -170.087 -0.977134 95.8099 -16.1201 17.4483 0.188968 67.4629 5.92254 -0.0909606 27.3402 -1.24826 1.62293 170.996 -2.04272 85.9696 -17.8321 -13.4518 -1.87481 67.6032 -4.3014 -1.07027 25.7055 -0.0406458 6.42382 0.292235 7.99479 -90.1997 10.8852 0.489489 -0.443185 -0.78573 0.469529 -0.464307 -23.3213 0.600058 -0.27558 -3.30869 0.600061 -0.275588 89.609 -31.2788 -107.038 36.5992 -3.79963 -3.3821 4.74252 -33.9299 -12.4231 -18.7237 -0.363198 -10.6417 -88.3751 -52.7308 81.6598 -21.6135 8.47247 -9.83563 -2.76868 10.4876 -3.77697 12.3789 -2.5049 -23.5406 10.5039 -1.0955 0.724267 -3.28241 -1.23512 0.57277 
-158.773 100.69 -147.329 -98.9973 41.0873 -83.3559 -170.066 -1.13002 95.6692 -16.4801 17.1726 0.134943 67.8798 6.12588 0.112028 27.2128 -1.30688 1.61042 170.777 -2.41401 85.7057 -17.2981 -14.0028 -1.89471 67.3015 -4.33316 -0.985915 26.032 -0.145187 6.30349 0.248623 7.96508 -90.1865 10.9443 0.408776 -0.409758 -0.726651 0.390325 -0.427353 -23.2621 0.513022 -0.267956 -3.24941 0.513007 -0.267968 89.8213 -31.7009 -106.47 37.2222 -4.44864 -1.91721 5.95359 -33.4284 -11.5885 -18.6613 -0.354211 -10.5977 -88.3172 -52.763 81.7499 -20.8561 6.96715 -11.9093 -1.69069 12.1517 -6.32348 15.0827 -3.29321 -25.0883 9.64956 -0.618596 0.664246 -2.64359 -0.745976 0.801546 
-159.401 100.666 -147.16 -99.0147 41.6973 -83.4882 -170.309 -1.50715 95.0562 -16.5848 16.0454 0.110751 68.2931 6.30333 -0.00464159 26.8408 -1.46406 1.53456 170.666 -2.3093 85.1998 -17.5092 -14.3467 -2.18357 67.3678 -4.41887 -0.667401 26.3341 -0.254989 6.24936 0.192102 7.96456 -90.168 10.9452 0.304675 -0.363175 -0.725764 0.288435 -0.376247 -23.261 0.399756 -0.254813 -3.24833 0.399744 -0.254821 89.8328 -32.0132 -106.333 37.436 -3.94182 -0.730456 4.79816 -33.475 -12.8602 -19.3604 -0.37173 -10.272 -88.4364 -52.4486 81.5201 -21.1475 5.91469 -13.163 -0.588114 13.2371 -8.81868 15.1638 -3.60717 -26.8096 10.0078 -0.35594 1.07349 -3.46398 -0.589986 0.66335 
-159.868 100.642 -147.118 -99.1041 42.4179 -83.3048 -170.186 -1.75217 94.966 -16.7634 15.3607 -0.0435032 68.6748 6.53685 -0.000872613 26.6904 -1.47816 1.36627 170.56 -2.32614 84.9759 -17.5088 -15.2508 -2.27538 67.2282 -4.40618 -0.848222 26.7142 -0.402755 6.22426 0.124633 7.94519 -90.1351 10.9838 0.185574 -0.286573 -0.687197 0.172786 -0.294467 -23.2223 0.263114 -0.21755 -3.20965 0.263127 -0.217555 89.8915 -31.9308 -106.25 37.7484 -3.97077 0.0244432 4.25711 -31.7358 -14.0319 -21.0535 -0.0809382 -11.452 -88.3649 -52.1343 81.568 -21.169 5.36407 -13.3214 0.832172 14.907 -10.3426 15.03 -3.82667 -28.2514 9.97261 0.0146603 0.790909 -3.63902 -0.164477 1.07333 
-160.263 100.62 -147.082 -99.3653 43.4071 -83.1415 -170.335 -2.24784 94.5543 -16.772 13.8166 -0.0120375 69.037 6.73434 -0.289242 26.5194 -1.49635 1.18221 170.361 -2.28863 84.5551 -17.6184 -16.4707 -2.42357 67.2831 -4.4713 -0.765971 26.6968 -0.373838 6.12275 0.122051 7.9448 -90.1727 10.9844 0.163052 -0.359035 -0.686575 0.147108 -0.365873 -23.2215 0.263403 -0.293437 -3.20888 0.263442 -0.29343 90.2141 -31.0275 -105.953 38.2632 -4.06666 0.33844 3.42491 -31.3539 -15.5304 -21.6112 -0.0606594 -11.325 -88.6632 -53.6552 81.408 -19.6501 6.05893 -13.1427 0.646975 16.3544 -9.98812 14.7805 -3.87999 -28.9485 9.88611 0.721397 2.17169 -3.50119 0.217283 0.447315 
-160.524 100.612 -147.121 -99.6342 44.6364 -82.6191 -170.126 -2.59352 94.6734 -16.7558 12.8228 -0.124218 69.3144 6.88563 -0.184687 26.547 -1.48437 1.18668 170.528 -2.36959 84.6549 -17.4638 -17.4402 -2.64185 67.0351 -4.40007 -0.726391 26.9893 -0.503044 6.17517 0.198619 7.95715 -90.1898 10.96 0.307578 -0.406855 -0.710959 0.289366 -0.420006 -23.2461 0.415622 -0.295614 -3.23347 0.41562 -0.295615 90.2933 -30.7363 -105.905 38.4553 -3.94012 -0.228875 2.57918 -32.0211 -16.4614 -23.0802 -0.143078 -10.6291 -88.7783 -53.3841 81.193 -20.3498 5.92351 -12.3485 0.152865 19.111 -8.2364 14.583 -3.70999 -28.3412 10.1272 1.06744 2.37463 -3.92754 0.503154 0.428752 
